<mxfile host="app.diagrams.net" modified="2024-06-06T14:43:38.722Z" agent="Mozilla/5.0 (Windows NT 10.0; Win64; x64; rv:126.0) Gecko/20100101 Firefox/126.0" etag="NEEwDd1Gg5NHfCQ96mt7" version="24.4.14" type="device">
  <diagram id="C5RBs43oDa-KdzZeNtuy" name="Page-1">
    <mxGraphModel dx="2593" dy="1331" grid="0" gridSize="10" guides="1" tooltips="1" connect="1" arrows="1" fold="1" page="0" pageScale="1" pageWidth="827" pageHeight="1169" background="none" math="0" shadow="0">
      <root>
        <mxCell id="WIyWlLk6GJQsqaUBKTNV-0" />
        <mxCell id="WIyWlLk6GJQsqaUBKTNV-1" parent="WIyWlLk6GJQsqaUBKTNV-0" />
        <mxCell id="X6aHceMRcVpdjTT9wPh7-7" value="Agenda" style="swimlane;fontStyle=3;align=center;verticalAlign=top;childLayout=stackLayout;horizontal=1;startSize=26;horizontalStack=0;resizeParent=1;resizeLast=0;collapsible=1;marginBottom=0;rounded=1;shadow=0;strokeWidth=1;labelBackgroundColor=none;fillColor=#FAE5C7;strokeColor=#0F8B8D;fontColor=#143642;" parent="WIyWlLk6GJQsqaUBKTNV-1" vertex="1">
          <mxGeometry x="101" y="363" width="160" height="73" as="geometry">
            <mxRectangle x="230" y="140" width="160" height="26" as="alternateBounds" />
          </mxGeometry>
        </mxCell>
        <mxCell id="wbWh36v0nCZpc6Vmj600-40" value="&amp;lt;&amp;lt;pk&amp;gt;&amp;gt; id: Long" style="text;html=1;align=center;verticalAlign=middle;whiteSpace=wrap;rounded=1;labelBackgroundColor=none;fontColor=#143642;" parent="X6aHceMRcVpdjTT9wPh7-7" vertex="1">
          <mxGeometry y="26" width="160" height="20" as="geometry" />
        </mxCell>
        <mxCell id="wbWh36v0nCZpc6Vmj600-41" value="date: LocalDate" style="text;html=1;align=center;verticalAlign=middle;whiteSpace=wrap;rounded=1;labelBackgroundColor=none;fontColor=#143642;" parent="X6aHceMRcVpdjTT9wPh7-7" vertex="1">
          <mxGeometry y="46" width="160" height="20" as="geometry" />
        </mxCell>
        <mxCell id="X6aHceMRcVpdjTT9wPh7-13" value="Pets" style="swimlane;fontStyle=3;align=center;verticalAlign=top;childLayout=stackLayout;horizontal=1;startSize=26;horizontalStack=0;resizeParent=1;resizeLast=0;collapsible=1;marginBottom=0;rounded=1;shadow=0;strokeWidth=1;labelBackgroundColor=none;fillColor=#FAE5C7;strokeColor=#0F8B8D;fontColor=#143642;" parent="WIyWlLk6GJQsqaUBKTNV-1" vertex="1">
          <mxGeometry x="411" y="127" width="160" height="138" as="geometry">
            <mxRectangle x="230" y="140" width="160" height="26" as="alternateBounds" />
          </mxGeometry>
        </mxCell>
        <mxCell id="wbWh36v0nCZpc6Vmj600-48" value="&amp;lt;&amp;lt;pk&amp;gt;&amp;gt; id: Long" style="text;html=1;align=center;verticalAlign=middle;whiteSpace=wrap;rounded=1;labelBackgroundColor=none;fontColor=#143642;" parent="X6aHceMRcVpdjTT9wPh7-13" vertex="1">
          <mxGeometry y="26" width="160" height="20" as="geometry" />
        </mxCell>
        <mxCell id="wbWh36v0nCZpc6Vmj600-55" value="name: String" style="text;html=1;align=center;verticalAlign=middle;whiteSpace=wrap;rounded=1;labelBackgroundColor=none;fontColor=#143642;" parent="X6aHceMRcVpdjTT9wPh7-13" vertex="1">
          <mxGeometry y="46" width="160" height="20" as="geometry" />
        </mxCell>
        <mxCell id="wbWh36v0nCZpc6Vmj600-56" value="weight: Double" style="text;html=1;align=center;verticalAlign=middle;whiteSpace=wrap;rounded=1;labelBackgroundColor=none;fontColor=#143642;" parent="X6aHceMRcVpdjTT9wPh7-13" vertex="1">
          <mxGeometry y="66" width="160" height="20" as="geometry" />
        </mxCell>
        <mxCell id="wbWh36v0nCZpc6Vmj600-57" value="birthDate: LocalDate" style="text;html=1;align=center;verticalAlign=middle;whiteSpace=wrap;rounded=1;labelBackgroundColor=none;fontColor=#143642;" parent="X6aHceMRcVpdjTT9wPh7-13" vertex="1">
          <mxGeometry y="86" width="160" height="20" as="geometry" />
        </mxCell>
        <mxCell id="wbWh36v0nCZpc6Vmj600-63" value="description: String" style="text;html=1;align=center;verticalAlign=middle;whiteSpace=wrap;rounded=1;labelBackgroundColor=none;fontColor=#143642;" parent="X6aHceMRcVpdjTT9wPh7-13" vertex="1">
          <mxGeometry y="106" width="160" height="20" as="geometry" />
        </mxCell>
        <mxCell id="zkfFHV4jXpPFQw0GAbJ--0" value="Person" style="swimlane;fontStyle=3;align=center;verticalAlign=top;childLayout=stackLayout;horizontal=1;startSize=26;horizontalStack=0;resizeParent=1;resizeLast=0;collapsible=1;marginBottom=0;rounded=1;shadow=0;strokeWidth=1;labelBackgroundColor=none;fillColor=#d5e8d4;strokeColor=#82b366;" parent="WIyWlLk6GJQsqaUBKTNV-1" vertex="1">
          <mxGeometry x="-18" y="-54" width="160" height="128" as="geometry">
            <mxRectangle x="230" y="140" width="160" height="26" as="alternateBounds" />
          </mxGeometry>
        </mxCell>
        <mxCell id="wbWh36v0nCZpc6Vmj600-1" value="&amp;lt;&amp;lt;pk&amp;gt;&amp;gt; id :Long" style="text;html=1;align=center;verticalAlign=middle;whiteSpace=wrap;rounded=1;labelBackgroundColor=none;fontColor=#143642;" parent="zkfFHV4jXpPFQw0GAbJ--0" vertex="1">
          <mxGeometry y="26" width="160" height="18" as="geometry" />
        </mxCell>
        <mxCell id="wbWh36v0nCZpc6Vmj600-3" value="name: String" style="text;html=1;align=center;verticalAlign=middle;whiteSpace=wrap;rounded=1;labelBackgroundColor=none;fontColor=#143642;" parent="zkfFHV4jXpPFQw0GAbJ--0" vertex="1">
          <mxGeometry y="44" width="160" height="20" as="geometry" />
        </mxCell>
        <mxCell id="wbWh36v0nCZpc6Vmj600-4" value="email: String" style="text;html=1;align=center;verticalAlign=middle;whiteSpace=wrap;rounded=1;labelBackgroundColor=none;fontColor=#143642;" parent="zkfFHV4jXpPFQw0GAbJ--0" vertex="1">
          <mxGeometry y="64" width="160" height="18" as="geometry" />
        </mxCell>
        <mxCell id="wbWh36v0nCZpc6Vmj600-6" value="phone: String" style="text;html=1;align=center;verticalAlign=middle;whiteSpace=wrap;rounded=1;labelBackgroundColor=none;fontColor=#143642;" parent="zkfFHV4jXpPFQw0GAbJ--0" vertex="1">
          <mxGeometry y="82" width="160" height="19" as="geometry" />
        </mxCell>
        <mxCell id="wbWh36v0nCZpc6Vmj600-14" value="birthDate: LocalDate" style="text;html=1;align=center;verticalAlign=middle;whiteSpace=wrap;rounded=1;labelBackgroundColor=none;fontColor=#143642;" parent="zkfFHV4jXpPFQw0GAbJ--0" vertex="1">
          <mxGeometry y="101" width="160" height="20" as="geometry" />
        </mxCell>
        <mxCell id="X6aHceMRcVpdjTT9wPh7-154" style="edgeStyle=orthogonalEdgeStyle;rounded=1;orthogonalLoop=1;jettySize=auto;html=1;entryX=0.5;entryY=1;entryDx=0;entryDy=0;labelBackgroundColor=none;fontColor=default;strokeColor=#A8201A;" parent="WIyWlLk6GJQsqaUBKTNV-1" source="X6aHceMRcVpdjTT9wPh7-1" target="zkfFHV4jXpPFQw0GAbJ--0" edge="1">
          <mxGeometry relative="1" as="geometry" />
        </mxCell>
        <mxCell id="X6aHceMRcVpdjTT9wPh7-1" value="User" style="swimlane;fontStyle=3;align=center;verticalAlign=top;childLayout=stackLayout;horizontal=1;startSize=26;horizontalStack=0;resizeParent=1;resizeLast=0;collapsible=1;marginBottom=0;rounded=1;shadow=0;strokeWidth=1;labelBackgroundColor=none;fillColor=#FAE5C7;strokeColor=#0F8B8D;fontColor=#143642;" parent="WIyWlLk6GJQsqaUBKTNV-1" vertex="1">
          <mxGeometry x="-137" y="159" width="160" height="94" as="geometry">
            <mxRectangle x="230" y="140" width="160" height="26" as="alternateBounds" />
          </mxGeometry>
        </mxCell>
        <mxCell id="wbWh36v0nCZpc6Vmj600-16" value="&amp;lt;&amp;lt;pk&amp;gt;&amp;gt; id: Long" style="text;html=1;align=center;verticalAlign=middle;whiteSpace=wrap;rounded=1;labelBackgroundColor=none;fontColor=#143642;" parent="X6aHceMRcVpdjTT9wPh7-1" vertex="1">
          <mxGeometry y="26" width="160" height="20" as="geometry" />
        </mxCell>
        <mxCell id="wbWh36v0nCZpc6Vmj600-20" value="password: String" style="text;html=1;align=center;verticalAlign=middle;whiteSpace=wrap;rounded=1;labelBackgroundColor=none;fontColor=#143642;" parent="X6aHceMRcVpdjTT9wPh7-1" vertex="1">
          <mxGeometry y="46" width="160" height="20" as="geometry" />
        </mxCell>
        <mxCell id="wbWh36v0nCZpc6Vmj600-22" value="cpfCnpj: String" style="text;html=1;align=center;verticalAlign=middle;whiteSpace=wrap;rounded=1;labelBackgroundColor=none;fontColor=#143642;" parent="X6aHceMRcVpdjTT9wPh7-1" vertex="1">
          <mxGeometry y="66" width="160" height="20" as="geometry" />
        </mxCell>
        <mxCell id="X6aHceMRcVpdjTT9wPh7-153" style="edgeStyle=orthogonalEdgeStyle;rounded=1;orthogonalLoop=1;jettySize=auto;html=1;entryX=0.5;entryY=1;entryDx=0;entryDy=0;labelBackgroundColor=none;fontColor=default;strokeColor=#A8201A;" parent="WIyWlLk6GJQsqaUBKTNV-1" source="X6aHceMRcVpdjTT9wPh7-3" target="zkfFHV4jXpPFQw0GAbJ--0" edge="1">
          <mxGeometry relative="1" as="geometry" />
        </mxCell>
        <mxCell id="X6aHceMRcVpdjTT9wPh7-3" value="Client" style="swimlane;fontStyle=3;align=center;verticalAlign=top;childLayout=stackLayout;horizontal=1;startSize=26;horizontalStack=0;resizeParent=1;resizeLast=0;collapsible=1;marginBottom=0;rounded=1;shadow=0;strokeWidth=1;labelBackgroundColor=none;fillColor=#FAE5C7;strokeColor=#0F8B8D;fontColor=#143642;" parent="WIyWlLk6GJQsqaUBKTNV-1" vertex="1">
          <mxGeometry x="101" y="159" width="160" height="79" as="geometry">
            <mxRectangle x="230" y="140" width="160" height="26" as="alternateBounds" />
          </mxGeometry>
        </mxCell>
        <mxCell id="wbWh36v0nCZpc6Vmj600-21" value="&amp;lt;&amp;lt;pk&amp;gt;&amp;gt; id: Long" style="text;html=1;align=center;verticalAlign=middle;whiteSpace=wrap;rounded=1;labelBackgroundColor=none;fontColor=#143642;" parent="X6aHceMRcVpdjTT9wPh7-3" vertex="1">
          <mxGeometry y="26" width="160" height="20" as="geometry" />
        </mxCell>
        <mxCell id="wbWh36v0nCZpc6Vmj600-23" value="cpf: String" style="text;html=1;align=center;verticalAlign=middle;whiteSpace=wrap;rounded=1;labelBackgroundColor=none;fontColor=#143642;" parent="X6aHceMRcVpdjTT9wPh7-3" vertex="1">
          <mxGeometry y="46" width="160" height="20" as="geometry" />
        </mxCell>
        <mxCell id="X6aHceMRcVpdjTT9wPh7-26" value="Service" style="swimlane;fontStyle=3;align=center;verticalAlign=top;childLayout=stackLayout;horizontal=1;startSize=26;horizontalStack=0;resizeParent=1;resizeLast=0;collapsible=1;marginBottom=0;rounded=1;shadow=0;strokeWidth=1;labelBackgroundColor=none;fillColor=#FAE5C7;strokeColor=#0F8B8D;fontColor=#143642;" parent="WIyWlLk6GJQsqaUBKTNV-1" vertex="1">
          <mxGeometry x="424" y="346" width="175" height="135.5" as="geometry">
            <mxRectangle x="230" y="140" width="160" height="26" as="alternateBounds" />
          </mxGeometry>
        </mxCell>
        <mxCell id="wbWh36v0nCZpc6Vmj600-42" value="&amp;lt;&amp;lt;pk&amp;gt;&amp;gt; id: Long" style="text;html=1;align=center;verticalAlign=middle;whiteSpace=wrap;rounded=1;labelBackgroundColor=none;fontColor=#143642;" parent="X6aHceMRcVpdjTT9wPh7-26" vertex="1">
          <mxGeometry y="26" width="175" height="20" as="geometry" />
        </mxCell>
        <mxCell id="wbWh36v0nCZpc6Vmj600-43" value="name: String" style="text;html=1;align=center;verticalAlign=middle;whiteSpace=wrap;rounded=1;labelBackgroundColor=none;fontColor=#143642;" parent="X6aHceMRcVpdjTT9wPh7-26" vertex="1">
          <mxGeometry y="46" width="175" height="20" as="geometry" />
        </mxCell>
        <mxCell id="wbWh36v0nCZpc6Vmj600-44" value="smallDog: BigDecimal" style="text;html=1;align=center;verticalAlign=middle;whiteSpace=wrap;rounded=1;labelBackgroundColor=none;fontColor=#143642;" parent="X6aHceMRcVpdjTT9wPh7-26" vertex="1">
          <mxGeometry y="66" width="175" height="20" as="geometry" />
        </mxCell>
        <mxCell id="wbWh36v0nCZpc6Vmj600-45" value="mediumSizeDog: BigDecimal" style="text;html=1;align=center;verticalAlign=middle;whiteSpace=wrap;rounded=1;labelBackgroundColor=none;fontColor=#143642;" parent="X6aHceMRcVpdjTT9wPh7-26" vertex="1">
          <mxGeometry y="86" width="175" height="20" as="geometry" />
        </mxCell>
        <mxCell id="wbWh36v0nCZpc6Vmj600-46" value="bigDog: BigDecimal" style="text;html=1;align=center;verticalAlign=middle;whiteSpace=wrap;rounded=1;labelBackgroundColor=none;fontColor=#143642;" parent="X6aHceMRcVpdjTT9wPh7-26" vertex="1">
          <mxGeometry y="106" width="175" height="20" as="geometry" />
        </mxCell>
        <mxCell id="X6aHceMRcVpdjTT9wPh7-28" value="" style="endArrow=none;html=1;rounded=1;exitX=1;exitY=0.25;exitDx=0;exitDy=0;labelBackgroundColor=none;fontColor=default;strokeColor=#A8201A;entryX=0.001;entryY=0.112;entryDx=0;entryDy=0;entryPerimeter=0;" parent="WIyWlLk6GJQsqaUBKTNV-1" source="wbWh36v0nCZpc6Vmj600-41" target="wbWh36v0nCZpc6Vmj600-44" edge="1">
          <mxGeometry width="50" height="50" relative="1" as="geometry">
            <mxPoint x="282" y="466" as="sourcePoint" />
            <mxPoint x="431" y="426" as="targetPoint" />
          </mxGeometry>
        </mxCell>
        <mxCell id="X6aHceMRcVpdjTT9wPh7-44" value="" style="endArrow=none;html=1;rounded=1;entryX=0.5;entryY=1;entryDx=0;entryDy=0;exitX=0.25;exitY=0;exitDx=0;exitDy=0;labelBackgroundColor=none;fontColor=default;strokeColor=#A8201A;" parent="WIyWlLk6GJQsqaUBKTNV-1" source="WaDthbBKja6x3SG7VzEH-55" target="X6aHceMRcVpdjTT9wPh7-32" edge="1">
          <mxGeometry width="50" height="50" relative="1" as="geometry">
            <mxPoint x="54" y="522.5" as="sourcePoint" />
            <mxPoint x="307" y="497.98" as="targetPoint" />
          </mxGeometry>
        </mxCell>
        <mxCell id="X6aHceMRcVpdjTT9wPh7-47" value="" style="endArrow=none;html=1;rounded=1;entryX=0.5;entryY=0;entryDx=0;entryDy=0;labelBackgroundColor=none;fontColor=default;strokeColor=#A8201A;" parent="WIyWlLk6GJQsqaUBKTNV-1" target="X6aHceMRcVpdjTT9wPh7-32" edge="1">
          <mxGeometry width="50" height="50" relative="1" as="geometry">
            <mxPoint x="128" y="238" as="sourcePoint" />
            <mxPoint x="-32" y="349" as="targetPoint" />
          </mxGeometry>
        </mxCell>
        <mxCell id="X6aHceMRcVpdjTT9wPh7-59" value="Category" style="swimlane;fontStyle=3;align=center;verticalAlign=top;childLayout=stackLayout;horizontal=1;startSize=28;horizontalStack=0;resizeParent=1;resizeLast=0;collapsible=1;marginBottom=0;rounded=0;shadow=0;strokeWidth=1;swimlaneFillColor=#E6E6E6;labelBackgroundColor=none;fillColor=#FAE5C7;strokeColor=#0F8B8D;fontColor=#143642;" parent="WIyWlLk6GJQsqaUBKTNV-1" vertex="1">
          <mxGeometry x="-445" y="113" width="160" height="150" as="geometry">
            <mxRectangle x="-402" y="118" width="160" height="26" as="alternateBounds" />
          </mxGeometry>
        </mxCell>
        <mxCell id="X6aHceMRcVpdjTT9wPh7-65" value="VACCINE" style="text;html=1;align=center;verticalAlign=middle;whiteSpace=wrap;rounded=1;labelBackgroundColor=none;fontColor=#143642;" parent="X6aHceMRcVpdjTT9wPh7-59" vertex="1">
          <mxGeometry y="28" width="160" height="20" as="geometry" />
        </mxCell>
        <mxCell id="X6aHceMRcVpdjTT9wPh7-66" value="FOOD" style="text;html=1;align=center;verticalAlign=middle;whiteSpace=wrap;rounded=1;labelBackgroundColor=none;fontColor=#143642;" parent="X6aHceMRcVpdjTT9wPh7-59" vertex="1">
          <mxGeometry y="48" width="160" height="19" as="geometry" />
        </mxCell>
        <mxCell id="X6aHceMRcVpdjTT9wPh7-67" value="ACCESSORY" style="text;html=1;align=center;verticalAlign=middle;whiteSpace=wrap;rounded=1;labelBackgroundColor=none;fontColor=#143642;" parent="X6aHceMRcVpdjTT9wPh7-59" vertex="1">
          <mxGeometry y="67" width="160" height="19" as="geometry" />
        </mxCell>
        <mxCell id="X6aHceMRcVpdjTT9wPh7-68" value="PHARMACY" style="text;html=1;align=center;verticalAlign=middle;whiteSpace=wrap;rounded=1;labelBackgroundColor=none;fontColor=#143642;" parent="X6aHceMRcVpdjTT9wPh7-59" vertex="1">
          <mxGeometry y="86" width="160" height="19" as="geometry" />
        </mxCell>
        <mxCell id="X6aHceMRcVpdjTT9wPh7-70" value="BEAULTY" style="text;html=1;align=center;verticalAlign=middle;whiteSpace=wrap;rounded=1;labelBackgroundColor=none;fontColor=#143642;" parent="X6aHceMRcVpdjTT9wPh7-59" vertex="1">
          <mxGeometry y="105" width="160" height="19" as="geometry" />
        </mxCell>
        <mxCell id="X6aHceMRcVpdjTT9wPh7-71" value="CLEANING" style="text;html=1;align=center;verticalAlign=middle;whiteSpace=wrap;rounded=1;labelBackgroundColor=none;fontColor=#143642;" parent="X6aHceMRcVpdjTT9wPh7-59" vertex="1">
          <mxGeometry y="124" width="160" height="19" as="geometry" />
        </mxCell>
        <mxCell id="X6aHceMRcVpdjTT9wPh7-73" value="" style="endArrow=none;html=1;rounded=1;entryX=0.5;entryY=0;entryDx=0;entryDy=0;exitX=0.5;exitY=1;exitDx=0;exitDy=0;labelBackgroundColor=none;fontColor=default;strokeColor=#A8201A;" parent="WIyWlLk6GJQsqaUBKTNV-1" source="X6aHceMRcVpdjTT9wPh7-59" target="X6aHceMRcVpdjTT9wPh7-30" edge="1">
          <mxGeometry width="50" height="50" relative="1" as="geometry">
            <mxPoint x="186" y="237" as="sourcePoint" />
            <mxPoint x="2" y="345" as="targetPoint" />
          </mxGeometry>
        </mxCell>
        <mxCell id="X6aHceMRcVpdjTT9wPh7-30" value="Product" style="swimlane;fontStyle=3;align=center;verticalAlign=top;childLayout=stackLayout;horizontal=1;startSize=26;horizontalStack=0;resizeParent=1;resizeLast=0;collapsible=1;marginBottom=0;rounded=1;shadow=0;strokeWidth=1;labelBackgroundColor=none;fillColor=#FAE5C7;strokeColor=#0F8B8D;fontColor=#143642;" parent="WIyWlLk6GJQsqaUBKTNV-1" vertex="1">
          <mxGeometry x="-445" y="322" width="160" height="154" as="geometry">
            <mxRectangle x="230" y="140" width="160" height="26" as="alternateBounds" />
          </mxGeometry>
        </mxCell>
        <mxCell id="wbWh36v0nCZpc6Vmj600-24" value="&amp;lt;&amp;lt;pk&amp;gt;&amp;gt; id: Long" style="text;html=1;align=center;verticalAlign=middle;whiteSpace=wrap;rounded=1;labelBackgroundColor=none;fontColor=#143642;" parent="X6aHceMRcVpdjTT9wPh7-30" vertex="1">
          <mxGeometry y="26" width="160" height="20" as="geometry" />
        </mxCell>
        <mxCell id="wbWh36v0nCZpc6Vmj600-25" value="&lt;div align=&quot;center&quot;&gt;name: String&lt;br&gt;&lt;/div&gt;" style="text;html=1;align=center;verticalAlign=middle;whiteSpace=wrap;rounded=1;labelBackgroundColor=none;fontColor=#143642;" parent="X6aHceMRcVpdjTT9wPh7-30" vertex="1">
          <mxGeometry y="46" width="160" height="20" as="geometry" />
        </mxCell>
        <mxCell id="wbWh36v0nCZpc6Vmj600-30" value="supplier: String" style="text;html=1;align=center;verticalAlign=middle;whiteSpace=wrap;rounded=1;labelBackgroundColor=none;fontColor=#143642;" parent="X6aHceMRcVpdjTT9wPh7-30" vertex="1">
          <mxGeometry y="66" width="160" height="20" as="geometry" />
        </mxCell>
        <mxCell id="wbWh36v0nCZpc6Vmj600-32" value="price: BigDecimal" style="text;html=1;align=center;verticalAlign=middle;whiteSpace=wrap;rounded=1;labelBackgroundColor=none;fontColor=#143642;" parent="X6aHceMRcVpdjTT9wPh7-30" vertex="1">
          <mxGeometry y="86" width="160" height="20" as="geometry" />
        </mxCell>
        <mxCell id="wbWh36v0nCZpc6Vmj600-33" value="description: String" style="text;html=1;align=center;verticalAlign=middle;whiteSpace=wrap;rounded=1;labelBackgroundColor=none;fontColor=#143642;" parent="X6aHceMRcVpdjTT9wPh7-30" vertex="1">
          <mxGeometry y="106" width="160" height="24" as="geometry" />
        </mxCell>
        <mxCell id="wbWh36v0nCZpc6Vmj600-64" value="stock: Integer" style="text;html=1;align=center;verticalAlign=middle;whiteSpace=wrap;rounded=1;labelBackgroundColor=none;fontColor=#143642;" parent="X6aHceMRcVpdjTT9wPh7-30" vertex="1">
          <mxGeometry y="130" width="160" height="24" as="geometry" />
        </mxCell>
        <mxCell id="X6aHceMRcVpdjTT9wPh7-32" value="Order" style="swimlane;fontStyle=3;align=center;verticalAlign=top;childLayout=stackLayout;horizontal=1;startSize=26;horizontalStack=0;resizeParent=1;resizeLast=0;collapsible=1;marginBottom=0;rounded=1;shadow=0;strokeWidth=1;labelBackgroundColor=none;fillColor=#FAE5C7;strokeColor=#0F8B8D;fontColor=#143642;" parent="WIyWlLk6GJQsqaUBKTNV-1" vertex="1">
          <mxGeometry x="-131" y="362" width="160" height="74" as="geometry">
            <mxRectangle x="230" y="140" width="160" height="26" as="alternateBounds" />
          </mxGeometry>
        </mxCell>
        <mxCell id="wbWh36v0nCZpc6Vmj600-36" value="&amp;lt;&amp;lt;pk&amp;gt;&amp;gt; id: Long" style="text;html=1;align=center;verticalAlign=middle;whiteSpace=wrap;rounded=1;labelBackgroundColor=none;fontColor=#143642;" parent="X6aHceMRcVpdjTT9wPh7-32" vertex="1">
          <mxGeometry y="26" width="160" height="20" as="geometry" />
        </mxCell>
        <mxCell id="wbWh36v0nCZpc6Vmj600-39" value="date: Instant" style="text;html=1;align=center;verticalAlign=middle;whiteSpace=wrap;rounded=1;labelBackgroundColor=none;fontColor=#143642;" parent="X6aHceMRcVpdjTT9wPh7-32" vertex="1">
          <mxGeometry y="46" width="160" height="20" as="geometry" />
        </mxCell>
        <mxCell id="X6aHceMRcVpdjTT9wPh7-34" value="OrderItem" style="swimlane;fontStyle=3;align=center;verticalAlign=top;childLayout=stackLayout;horizontal=1;startSize=26;horizontalStack=0;resizeParent=1;resizeLast=0;collapsible=1;marginBottom=0;rounded=1;shadow=0;strokeWidth=1;labelBackgroundColor=none;fillColor=#FAE5C7;strokeColor=#0F8B8D;fontColor=#143642;" parent="WIyWlLk6GJQsqaUBKTNV-1" vertex="1">
          <mxGeometry x="-284" y="501.5" width="160" height="73" as="geometry">
            <mxRectangle x="230" y="140" width="160" height="26" as="alternateBounds" />
          </mxGeometry>
        </mxCell>
        <mxCell id="wbWh36v0nCZpc6Vmj600-37" value="quantity: Integer" style="text;html=1;align=center;verticalAlign=middle;whiteSpace=wrap;rounded=1;labelBackgroundColor=none;fontColor=#143642;" parent="X6aHceMRcVpdjTT9wPh7-34" vertex="1">
          <mxGeometry y="26" width="160" height="20" as="geometry" />
        </mxCell>
        <mxCell id="wbWh36v0nCZpc6Vmj600-38" value="price: BigDecimal" style="text;html=1;align=center;verticalAlign=middle;whiteSpace=wrap;rounded=1;labelBackgroundColor=none;fontColor=#143642;" parent="X6aHceMRcVpdjTT9wPh7-34" vertex="1">
          <mxGeometry y="46" width="160" height="20" as="geometry" />
        </mxCell>
        <mxCell id="X6aHceMRcVpdjTT9wPh7-36" value="" style="endArrow=none;html=1;rounded=1;entryX=0;entryY=0.5;entryDx=0;entryDy=0;exitX=1;exitY=0.5;exitDx=0;exitDy=0;labelBackgroundColor=none;fontColor=default;strokeColor=#A8201A;" parent="WIyWlLk6GJQsqaUBKTNV-1" source="X6aHceMRcVpdjTT9wPh7-30" target="X6aHceMRcVpdjTT9wPh7-32" edge="1">
          <mxGeometry width="50" height="50" relative="1" as="geometry">
            <mxPoint x="-607" y="382" as="sourcePoint" />
            <mxPoint x="-607" y="448" as="targetPoint" />
          </mxGeometry>
        </mxCell>
        <mxCell id="X6aHceMRcVpdjTT9wPh7-37" value="" style="endArrow=none;dashed=1;html=1;rounded=1;exitX=0.5;exitY=0;exitDx=0;exitDy=0;labelBackgroundColor=none;fontColor=default;strokeColor=#A8201A;" parent="WIyWlLk6GJQsqaUBKTNV-1" source="X6aHceMRcVpdjTT9wPh7-34" edge="1">
          <mxGeometry width="50" height="50" relative="1" as="geometry">
            <mxPoint x="-205.75799086758025" y="482" as="sourcePoint" />
            <mxPoint x="-205" y="399" as="targetPoint" />
          </mxGeometry>
        </mxCell>
        <mxCell id="X6aHceMRcVpdjTT9wPh7-125" value="Roles" style="swimlane;fontStyle=3;align=center;verticalAlign=top;childLayout=stackLayout;horizontal=1;startSize=26;horizontalStack=0;resizeParent=1;resizeLast=0;collapsible=1;marginBottom=0;rounded=0;shadow=0;strokeWidth=1;swimlaneFillColor=#E6E6E6;labelBackgroundColor=none;fillColor=#FAE5C7;strokeColor=#0F8B8D;fontColor=#143642;" parent="WIyWlLk6GJQsqaUBKTNV-1" vertex="1">
          <mxGeometry x="-240.5" y="22" width="160" height="73" as="geometry">
            <mxRectangle x="230" y="140" width="160" height="26" as="alternateBounds" />
          </mxGeometry>
        </mxCell>
        <mxCell id="X6aHceMRcVpdjTT9wPh7-101" value="ADMIN" style="text;html=1;align=center;verticalAlign=middle;whiteSpace=wrap;rounded=1;labelBackgroundColor=none;fontColor=#143642;" parent="X6aHceMRcVpdjTT9wPh7-125" vertex="1">
          <mxGeometry y="26" width="160" height="19" as="geometry" />
        </mxCell>
        <mxCell id="X6aHceMRcVpdjTT9wPh7-132" value="COMMOM" style="text;html=1;align=center;verticalAlign=middle;whiteSpace=wrap;rounded=1;labelBackgroundColor=none;fontColor=#143642;" parent="X6aHceMRcVpdjTT9wPh7-125" vertex="1">
          <mxGeometry y="45" width="160" height="19" as="geometry" />
        </mxCell>
        <mxCell id="X6aHceMRcVpdjTT9wPh7-133" value="" style="endArrow=none;html=1;rounded=1;exitX=0;exitY=0;exitDx=0;exitDy=0;entryX=0.5;entryY=1;entryDx=0;entryDy=0;labelBackgroundColor=none;fontColor=default;strokeColor=#A8201A;" parent="WIyWlLk6GJQsqaUBKTNV-1" target="X6aHceMRcVpdjTT9wPh7-125" edge="1" source="wbWh36v0nCZpc6Vmj600-20">
          <mxGeometry width="50" height="50" relative="1" as="geometry">
            <mxPoint x="-108.40000000000009" y="159.75200000000007" as="sourcePoint" />
            <mxPoint x="-117" y="116" as="targetPoint" />
            <Array as="points">
              <mxPoint x="-160" y="205" />
            </Array>
          </mxGeometry>
        </mxCell>
        <mxCell id="X6aHceMRcVpdjTT9wPh7-144" value="" style="endArrow=none;html=1;rounded=1;labelBackgroundColor=none;fontColor=default;strokeColor=#A8201A;entryX=0.998;entryY=0.807;entryDx=0;entryDy=0;entryPerimeter=0;" parent="WIyWlLk6GJQsqaUBKTNV-1" source="wbWh36v0nCZpc6Vmj600-56" target="wbWh36v0nCZpc6Vmj600-21" edge="1">
          <mxGeometry width="50" height="50" relative="1" as="geometry">
            <mxPoint x="343" y="218" as="sourcePoint" />
            <mxPoint x="-52" y="64" as="targetPoint" />
          </mxGeometry>
        </mxCell>
        <mxCell id="wbWh36v0nCZpc6Vmj600-50" value="AnimalType" style="swimlane;fontStyle=3;align=center;verticalAlign=top;childLayout=stackLayout;horizontal=1;startSize=26;horizontalStack=0;resizeParent=1;resizeLast=0;collapsible=1;marginBottom=0;rounded=0;shadow=0;strokeWidth=1;swimlaneFillColor=#E6E6E6;labelBackgroundColor=none;fillColor=#FAE5C7;strokeColor=#0F8B8D;fontColor=#143642;" parent="WIyWlLk6GJQsqaUBKTNV-1" vertex="1">
          <mxGeometry x="352" y="-17" width="132" height="73" as="geometry">
            <mxRectangle x="230" y="140" width="160" height="26" as="alternateBounds" />
          </mxGeometry>
        </mxCell>
        <mxCell id="wbWh36v0nCZpc6Vmj600-51" value="DOG" style="text;html=1;align=center;verticalAlign=middle;whiteSpace=wrap;rounded=1;labelBackgroundColor=none;fontColor=#143642;" parent="wbWh36v0nCZpc6Vmj600-50" vertex="1">
          <mxGeometry y="26" width="132" height="19" as="geometry" />
        </mxCell>
        <mxCell id="wbWh36v0nCZpc6Vmj600-52" value="CAT" style="text;html=1;align=center;verticalAlign=middle;whiteSpace=wrap;rounded=1;labelBackgroundColor=none;fontColor=#143642;" parent="wbWh36v0nCZpc6Vmj600-50" vertex="1">
          <mxGeometry y="45" width="132" height="19" as="geometry" />
        </mxCell>
        <mxCell id="wbWh36v0nCZpc6Vmj600-54" value="" style="endArrow=none;html=1;rounded=1;labelBackgroundColor=none;fontColor=default;strokeColor=#A8201A;exitX=0.75;exitY=1;exitDx=0;exitDy=0;" parent="WIyWlLk6GJQsqaUBKTNV-1" source="wbWh36v0nCZpc6Vmj600-50" edge="1">
          <mxGeometry width="50" height="50" relative="1" as="geometry">
            <mxPoint x="409" y="20" as="sourcePoint" />
            <mxPoint x="452" y="126" as="targetPoint" />
          </mxGeometry>
        </mxCell>
        <mxCell id="wbWh36v0nCZpc6Vmj600-58" value="Gender" style="swimlane;fontStyle=3;align=center;verticalAlign=top;childLayout=stackLayout;horizontal=1;startSize=26;horizontalStack=0;resizeParent=1;resizeLast=0;collapsible=1;marginBottom=0;rounded=0;shadow=0;strokeWidth=1;swimlaneFillColor=#E6E6E6;labelBackgroundColor=none;fillColor=#FAE5C7;strokeColor=#0F8B8D;fontColor=#143642;" parent="WIyWlLk6GJQsqaUBKTNV-1" vertex="1">
          <mxGeometry x="498" y="-17" width="132" height="73" as="geometry">
            <mxRectangle x="230" y="140" width="160" height="26" as="alternateBounds" />
          </mxGeometry>
        </mxCell>
        <mxCell id="wbWh36v0nCZpc6Vmj600-59" value="MALE" style="text;html=1;align=center;verticalAlign=middle;whiteSpace=wrap;rounded=1;labelBackgroundColor=none;fontColor=#143642;" parent="wbWh36v0nCZpc6Vmj600-58" vertex="1">
          <mxGeometry y="26" width="132" height="19" as="geometry" />
        </mxCell>
        <mxCell id="wbWh36v0nCZpc6Vmj600-60" value="FEMALE" style="text;html=1;align=center;verticalAlign=middle;whiteSpace=wrap;rounded=1;labelBackgroundColor=none;fontColor=#143642;" parent="wbWh36v0nCZpc6Vmj600-58" vertex="1">
          <mxGeometry y="45" width="132" height="19" as="geometry" />
        </mxCell>
        <mxCell id="wbWh36v0nCZpc6Vmj600-62" value="" style="endArrow=none;html=1;rounded=1;entryX=0.75;entryY=0;entryDx=0;entryDy=0;exitX=0.25;exitY=1;exitDx=0;exitDy=0;labelBackgroundColor=none;fontColor=default;strokeColor=#A8201A;" parent="WIyWlLk6GJQsqaUBKTNV-1" source="wbWh36v0nCZpc6Vmj600-58" target="X6aHceMRcVpdjTT9wPh7-13" edge="1">
          <mxGeometry width="50" height="50" relative="1" as="geometry">
            <mxPoint x="636" y="179" as="sourcePoint" />
            <mxPoint x="547" y="179" as="targetPoint" />
          </mxGeometry>
        </mxCell>
        <mxCell id="wbWh36v0nCZpc6Vmj600-67" value="" style="endArrow=none;html=1;rounded=1;exitX=0.5;exitY=0;exitDx=0;exitDy=0;entryX=0.5;entryY=1;entryDx=0;entryDy=0;labelBackgroundColor=none;fontColor=default;strokeColor=#A8201A;" parent="WIyWlLk6GJQsqaUBKTNV-1" source="X6aHceMRcVpdjTT9wPh7-7" target="X6aHceMRcVpdjTT9wPh7-3" edge="1">
          <mxGeometry width="50" height="50" relative="1" as="geometry">
            <mxPoint x="231" y="287" as="sourcePoint" />
            <mxPoint x="181" y="308" as="targetPoint" />
          </mxGeometry>
        </mxCell>
        <mxCell id="wbWh36v0nCZpc6Vmj600-88" value="" style="group;rounded=1;labelBackgroundColor=none;fontColor=#143642;" parent="WIyWlLk6GJQsqaUBKTNV-1" vertex="1" connectable="0">
          <mxGeometry x="-493" y="-126" width="344" height="57" as="geometry" />
        </mxCell>
        <mxCell id="wbWh36v0nCZpc6Vmj600-86" value="by&amp;nbsp; Mateus Fonseca" style="text;html=1;align=center;verticalAlign=top;whiteSpace=wrap;rounded=1;fontStyle=1;fontSize=15;labelBackgroundColor=none;fontColor=#143642;" parent="wbWh36v0nCZpc6Vmj600-88" vertex="1">
          <mxGeometry x="36" y="27" width="171" height="30" as="geometry" />
        </mxCell>
        <mxCell id="wbWh36v0nCZpc6Vmj600-87" value="Class Diagram - PetControlSystem" style="text;html=1;align=center;verticalAlign=top;whiteSpace=wrap;rounded=1;fontStyle=1;fontSize=15;labelBackgroundColor=none;fontColor=#143642;" parent="wbWh36v0nCZpc6Vmj600-88" vertex="1">
          <mxGeometry width="344" height="30" as="geometry" />
        </mxCell>
        <mxCell id="WaDthbBKja6x3SG7VzEH-0" value="*" style="text;html=1;align=center;verticalAlign=middle;whiteSpace=wrap;rounded=1;labelBackgroundColor=none;fontColor=#143642;" parent="WIyWlLk6GJQsqaUBKTNV-1" vertex="1">
          <mxGeometry x="-166" y="378" width="35" height="21" as="geometry" />
        </mxCell>
        <mxCell id="WaDthbBKja6x3SG7VzEH-1" value="1..*" style="text;html=1;align=center;verticalAlign=middle;whiteSpace=wrap;rounded=1;labelBackgroundColor=none;fontColor=#143642;" parent="WIyWlLk6GJQsqaUBKTNV-1" vertex="1">
          <mxGeometry x="-283" y="378" width="35" height="21" as="geometry" />
        </mxCell>
        <mxCell id="WaDthbBKja6x3SG7VzEH-2" value="- products" style="text;html=1;align=center;verticalAlign=middle;whiteSpace=wrap;rounded=1;labelBackgroundColor=none;fontColor=#143642;" parent="WIyWlLk6GJQsqaUBKTNV-1" vertex="1">
          <mxGeometry x="-282" y="395" width="58" height="31" as="geometry" />
        </mxCell>
        <mxCell id="WaDthbBKja6x3SG7VzEH-3" value="- orders" style="text;html=1;align=center;verticalAlign=middle;whiteSpace=wrap;rounded=1;labelBackgroundColor=none;fontColor=#143642;" parent="WIyWlLk6GJQsqaUBKTNV-1" vertex="1">
          <mxGeometry x="-187" y="394" width="58" height="31" as="geometry" />
        </mxCell>
        <mxCell id="WaDthbBKja6x3SG7VzEH-4" value="1" style="text;html=1;align=center;verticalAlign=middle;whiteSpace=wrap;rounded=1;labelBackgroundColor=none;fontColor=#143642;" parent="WIyWlLk6GJQsqaUBKTNV-1" vertex="1">
          <mxGeometry x="107" y="242" width="35" height="21" as="geometry" />
        </mxCell>
        <mxCell id="WaDthbBKja6x3SG7VzEH-5" value="0..*" style="text;html=1;align=center;verticalAlign=middle;whiteSpace=wrap;rounded=1;labelBackgroundColor=none;fontColor=#143642;" parent="WIyWlLk6GJQsqaUBKTNV-1" vertex="1">
          <mxGeometry x="-25" y="338" width="35" height="21" as="geometry" />
        </mxCell>
        <mxCell id="WaDthbBKja6x3SG7VzEH-7" value="- orders" style="text;html=1;align=center;verticalAlign=middle;whiteSpace=wrap;rounded=1;fontSize=12;labelBackgroundColor=none;fontColor=#143642;" parent="WIyWlLk6GJQsqaUBKTNV-1" vertex="1">
          <mxGeometry x="-97.5" y="331" width="58" height="31" as="geometry" />
        </mxCell>
        <mxCell id="WaDthbBKja6x3SG7VzEH-8" value="- client" style="text;html=1;align=center;verticalAlign=middle;whiteSpace=wrap;rounded=1;labelBackgroundColor=none;fontColor=#143642;" parent="WIyWlLk6GJQsqaUBKTNV-1" vertex="1">
          <mxGeometry x="47" y="237.5" width="58" height="31" as="geometry" />
        </mxCell>
        <mxCell id="WaDthbBKja6x3SG7VzEH-10" value="0..*" style="text;html=1;align=center;verticalAlign=middle;whiteSpace=wrap;rounded=1;labelBackgroundColor=none;fontColor=#143642;" parent="WIyWlLk6GJQsqaUBKTNV-1" vertex="1">
          <mxGeometry x="376" y="179.63" width="35" height="21" as="geometry" />
        </mxCell>
        <mxCell id="WaDthbBKja6x3SG7VzEH-11" value="1" style="text;html=1;align=center;verticalAlign=middle;whiteSpace=wrap;rounded=1;labelBackgroundColor=none;fontColor=#143642;" parent="WIyWlLk6GJQsqaUBKTNV-1" vertex="1">
          <mxGeometry x="257" y="184.75" width="35" height="10.75" as="geometry" />
        </mxCell>
        <mxCell id="WaDthbBKja6x3SG7VzEH-13" value="- client" style="text;html=1;align=center;verticalAlign=middle;whiteSpace=wrap;rounded=1;labelBackgroundColor=none;fontColor=#143642;" parent="WIyWlLk6GJQsqaUBKTNV-1" vertex="1">
          <mxGeometry x="254" y="204.25" width="58" height="12" as="geometry" />
        </mxCell>
        <mxCell id="WaDthbBKja6x3SG7VzEH-14" value="- pets" style="text;html=1;align=center;verticalAlign=middle;whiteSpace=wrap;rounded=1;labelBackgroundColor=none;fontColor=#143642;" parent="WIyWlLk6GJQsqaUBKTNV-1" vertex="1">
          <mxGeometry x="359" y="200.63" width="58" height="19.25" as="geometry" />
        </mxCell>
        <mxCell id="WaDthbBKja6x3SG7VzEH-48" value="- orders" style="text;html=1;align=center;verticalAlign=middle;whiteSpace=wrap;rounded=1;labelBackgroundColor=none;fontColor=#143642;" parent="WIyWlLk6GJQsqaUBKTNV-1" vertex="1">
          <mxGeometry x="-29" y="437.5" width="58" height="16" as="geometry" />
        </mxCell>
        <mxCell id="WaDthbBKja6x3SG7VzEH-49" value="- appointments " style="text;html=1;align=center;verticalAlign=middle;whiteSpace=wrap;rounded=1;labelBackgroundColor=none;fontColor=#143642;" parent="WIyWlLk6GJQsqaUBKTNV-1" vertex="1">
          <mxGeometry x="87" y="435.5" width="96" height="20" as="geometry" />
        </mxCell>
        <mxCell id="WaDthbBKja6x3SG7VzEH-53" value="*" style="text;html=1;align=center;verticalAlign=middle;whiteSpace=wrap;rounded=1;labelBackgroundColor=none;fontColor=#143642;" parent="WIyWlLk6GJQsqaUBKTNV-1" vertex="1">
          <mxGeometry x="-76" y="439" width="35" height="21" as="geometry" />
        </mxCell>
        <mxCell id="WaDthbBKja6x3SG7VzEH-55" value="Log" style="swimlane;fontStyle=3;align=center;verticalAlign=top;childLayout=stackLayout;horizontal=1;startSize=26;horizontalStack=0;resizeParent=1;resizeLast=0;collapsible=1;marginBottom=0;rounded=1;shadow=0;strokeWidth=1;labelBackgroundColor=none;fillColor=#FAE5C7;strokeColor=#0F8B8D;fontColor=#143642;" parent="WIyWlLk6GJQsqaUBKTNV-1" vertex="1">
          <mxGeometry x="67" y="533" width="160" height="67.5" as="geometry">
            <mxRectangle x="230" y="140" width="160" height="26" as="alternateBounds" />
          </mxGeometry>
        </mxCell>
        <mxCell id="WaDthbBKja6x3SG7VzEH-58" value="&amp;lt;&amp;lt;pk&amp;gt;&amp;gt; id: Long" style="text;html=1;align=center;verticalAlign=middle;whiteSpace=wrap;rounded=1;labelBackgroundColor=none;fontColor=#143642;" parent="WaDthbBKja6x3SG7VzEH-55" vertex="1">
          <mxGeometry y="26" width="160" height="20" as="geometry" />
        </mxCell>
        <mxCell id="WaDthbBKja6x3SG7VzEH-59" value="date: LocalDate" style="text;html=1;align=center;verticalAlign=middle;whiteSpace=wrap;rounded=1;labelBackgroundColor=none;fontColor=#143642;" parent="WaDthbBKja6x3SG7VzEH-55" vertex="1">
          <mxGeometry y="46" width="160" height="20" as="geometry" />
        </mxCell>
        <mxCell id="WaDthbBKja6x3SG7VzEH-57" value="1" style="text;html=1;align=center;verticalAlign=middle;whiteSpace=wrap;rounded=1;labelBackgroundColor=none;fontColor=#143642;" parent="WIyWlLk6GJQsqaUBKTNV-1" vertex="1">
          <mxGeometry x="48" y="511" width="35" height="21" as="geometry" />
        </mxCell>
        <mxCell id="WaDthbBKja6x3SG7VzEH-61" value="RegisterType" style="swimlane;fontStyle=3;align=center;verticalAlign=top;childLayout=stackLayout;horizontal=1;startSize=26;horizontalStack=0;resizeParent=1;resizeLast=0;collapsible=1;marginBottom=0;rounded=0;shadow=0;strokeWidth=1;swimlaneFillColor=#E6E6E6;labelBackgroundColor=none;fillColor=#FAE5C7;strokeColor=#0F8B8D;fontColor=#143642;" parent="WIyWlLk6GJQsqaUBKTNV-1" vertex="1">
          <mxGeometry x="81" y="642" width="132" height="73" as="geometry">
            <mxRectangle x="230" y="140" width="160" height="26" as="alternateBounds" />
          </mxGeometry>
        </mxCell>
        <mxCell id="WaDthbBKja6x3SG7VzEH-62" value="APPOINTMENT" style="text;html=1;align=center;verticalAlign=middle;whiteSpace=wrap;rounded=1;labelBackgroundColor=none;fontColor=#143642;" parent="WaDthbBKja6x3SG7VzEH-61" vertex="1">
          <mxGeometry y="26" width="132" height="19" as="geometry" />
        </mxCell>
        <mxCell id="WaDthbBKja6x3SG7VzEH-63" value="ORDER" style="text;html=1;align=center;verticalAlign=middle;whiteSpace=wrap;rounded=1;labelBackgroundColor=none;fontColor=#143642;" parent="WaDthbBKja6x3SG7VzEH-61" vertex="1">
          <mxGeometry y="45" width="132" height="19" as="geometry" />
        </mxCell>
        <mxCell id="WaDthbBKja6x3SG7VzEH-64" value="" style="endArrow=none;html=1;rounded=1;entryX=0.5;entryY=0;entryDx=0;entryDy=0;exitX=0.5;exitY=1;exitDx=0;exitDy=0;labelBackgroundColor=none;fontColor=default;strokeColor=#A8201A;" parent="WIyWlLk6GJQsqaUBKTNV-1" source="WaDthbBKja6x3SG7VzEH-55" target="WaDthbBKja6x3SG7VzEH-61" edge="1">
          <mxGeometry width="50" height="50" relative="1" as="geometry">
            <mxPoint x="93" y="551" as="sourcePoint" />
            <mxPoint x="84" y="596" as="targetPoint" />
          </mxGeometry>
        </mxCell>
        <mxCell id="WaDthbBKja6x3SG7VzEH-65" value="" style="endArrow=none;html=1;rounded=1;exitX=0.713;exitY=-0.015;exitDx=0;exitDy=0;exitPerimeter=0;labelBackgroundColor=none;fontColor=default;strokeColor=#A8201A;entryX=0.5;entryY=1;entryDx=0;entryDy=0;" parent="WIyWlLk6GJQsqaUBKTNV-1" source="WaDthbBKja6x3SG7VzEH-55" target="X6aHceMRcVpdjTT9wPh7-7" edge="1">
          <mxGeometry width="50" height="50" relative="1" as="geometry">
            <mxPoint x="142" y="504" as="sourcePoint" />
            <mxPoint x="171" y="436" as="targetPoint" />
          </mxGeometry>
        </mxCell>
        <mxCell id="WaDthbBKja6x3SG7VzEH-66" value="1" style="text;html=1;align=center;verticalAlign=middle;whiteSpace=wrap;rounded=1;labelBackgroundColor=none;fontColor=#143642;" parent="WIyWlLk6GJQsqaUBKTNV-1" vertex="1">
          <mxGeometry x="176" y="508" width="35" height="21" as="geometry" />
        </mxCell>
        <mxCell id="WaDthbBKja6x3SG7VzEH-68" value="*" style="text;html=1;align=center;verticalAlign=middle;whiteSpace=wrap;rounded=1;labelBackgroundColor=none;fontColor=#143642;" parent="WIyWlLk6GJQsqaUBKTNV-1" vertex="1">
          <mxGeometry x="176" y="441.5" width="35" height="16" as="geometry" />
        </mxCell>
        <mxCell id="WaDthbBKja6x3SG7VzEH-69" value="- services" style="text;html=1;align=center;verticalAlign=middle;whiteSpace=wrap;rounded=1;labelBackgroundColor=none;fontColor=#143642;" parent="WIyWlLk6GJQsqaUBKTNV-1" vertex="1">
          <mxGeometry x="363" y="387" width="58" height="31" as="geometry" />
        </mxCell>
        <mxCell id="WaDthbBKja6x3SG7VzEH-71" value="- appointments " style="text;html=1;align=center;verticalAlign=middle;whiteSpace=wrap;rounded=1;labelBackgroundColor=none;fontColor=#143642;" parent="WIyWlLk6GJQsqaUBKTNV-1" vertex="1">
          <mxGeometry x="257" y="387" width="96" height="31" as="geometry" />
        </mxCell>
        <mxCell id="WaDthbBKja6x3SG7VzEH-72" value="1..*" style="text;html=1;align=center;verticalAlign=middle;whiteSpace=wrap;rounded=1;labelBackgroundColor=none;fontColor=#143642;" parent="WIyWlLk6GJQsqaUBKTNV-1" vertex="1">
          <mxGeometry x="388" y="415" width="35" height="21" as="geometry" />
        </mxCell>
        <mxCell id="WaDthbBKja6x3SG7VzEH-74" value="0..*" style="text;html=1;align=center;verticalAlign=middle;whiteSpace=wrap;rounded=1;labelBackgroundColor=none;fontColor=#143642;" parent="WIyWlLk6GJQsqaUBKTNV-1" vertex="1">
          <mxGeometry x="257" y="415" width="35" height="21" as="geometry" />
        </mxCell>
        <mxCell id="WaDthbBKja6x3SG7VzEH-75" value="- client" style="text;html=1;align=center;verticalAlign=middle;whiteSpace=wrap;rounded=1;labelBackgroundColor=none;fontColor=#143642;" parent="WIyWlLk6GJQsqaUBKTNV-1" vertex="1">
          <mxGeometry x="186" y="238" width="40" height="30" as="geometry" />
        </mxCell>
        <mxCell id="WaDthbBKja6x3SG7VzEH-78" value="0..*" style="text;html=1;align=center;verticalAlign=middle;whiteSpace=wrap;rounded=1;labelBackgroundColor=none;fontColor=#143642;" parent="WIyWlLk6GJQsqaUBKTNV-1" vertex="1">
          <mxGeometry x="146" y="341" width="35" height="21" as="geometry" />
        </mxCell>
        <mxCell id="WaDthbBKja6x3SG7VzEH-79" value="1" style="text;html=1;align=center;verticalAlign=middle;whiteSpace=wrap;rounded=1;labelBackgroundColor=none;fontColor=#143642;" parent="WIyWlLk6GJQsqaUBKTNV-1" vertex="1">
          <mxGeometry x="144" y="242" width="35" height="21" as="geometry" />
        </mxCell>
        <mxCell id="WaDthbBKja6x3SG7VzEH-84" value="AgendaService" style="swimlane;fontStyle=3;align=center;verticalAlign=top;childLayout=stackLayout;horizontal=1;startSize=26;horizontalStack=0;resizeParent=1;resizeLast=0;collapsible=1;marginBottom=0;rounded=1;shadow=0;strokeWidth=1;labelBackgroundColor=none;fillColor=#FAE5C7;strokeColor=#0F8B8D;fontColor=#143642;" parent="WIyWlLk6GJQsqaUBKTNV-1" vertex="1">
          <mxGeometry x="261" y="517" width="160" height="50.5" as="geometry">
            <mxRectangle x="230" y="140" width="160" height="26" as="alternateBounds" />
          </mxGeometry>
        </mxCell>
        <mxCell id="WaDthbBKja6x3SG7VzEH-85" value="price: BigDecimal" style="text;html=1;align=center;verticalAlign=middle;whiteSpace=wrap;rounded=1;labelBackgroundColor=none;fontColor=#143642;" parent="WaDthbBKja6x3SG7VzEH-84" vertex="1">
          <mxGeometry y="26" width="160" height="20" as="geometry" />
        </mxCell>
        <mxCell id="WaDthbBKja6x3SG7VzEH-87" value="" style="endArrow=none;dashed=1;html=1;rounded=1;exitX=0.5;exitY=0;exitDx=0;exitDy=0;labelBackgroundColor=none;fontColor=default;strokeColor=#A8201A;" parent="WIyWlLk6GJQsqaUBKTNV-1" source="WaDthbBKja6x3SG7VzEH-84" edge="1">
          <mxGeometry width="50" height="50" relative="1" as="geometry">
            <mxPoint x="344.24200913241975" y="476" as="sourcePoint" />
            <mxPoint x="340" y="415" as="targetPoint" />
          </mxGeometry>
        </mxCell>
        <mxCell id="WaDthbBKja6x3SG7VzEH-92" value="Address" style="swimlane;fontStyle=3;align=center;verticalAlign=top;childLayout=stackLayout;horizontal=1;startSize=26;horizontalStack=0;resizeParent=1;resizeLast=0;collapsible=1;marginBottom=0;rounded=1;shadow=0;strokeWidth=1;labelBackgroundColor=none;fillColor=#d5e8d4;strokeColor=#82b366;" parent="WIyWlLk6GJQsqaUBKTNV-1" vertex="1">
          <mxGeometry x="239" y="-238" width="160" height="163" as="geometry">
            <mxRectangle x="230" y="140" width="160" height="26" as="alternateBounds" />
          </mxGeometry>
        </mxCell>
        <mxCell id="WaDthbBKja6x3SG7VzEH-93" value="&amp;lt;&amp;lt;pk&amp;gt;&amp;gt; id :Long" style="text;html=1;align=center;verticalAlign=middle;whiteSpace=wrap;rounded=1;labelBackgroundColor=none;fontColor=#143642;" parent="WaDthbBKja6x3SG7VzEH-92" vertex="1">
          <mxGeometry y="26" width="160" height="18" as="geometry" />
        </mxCell>
        <mxCell id="WaDthbBKja6x3SG7VzEH-94" value="cep: Integer" style="text;html=1;align=center;verticalAlign=middle;whiteSpace=wrap;rounded=1;labelBackgroundColor=none;fontColor=#143642;" parent="WaDthbBKja6x3SG7VzEH-92" vertex="1">
          <mxGeometry y="44" width="160" height="20" as="geometry" />
        </mxCell>
        <mxCell id="WaDthbBKja6x3SG7VzEH-95" value="street: String" style="text;html=1;align=center;verticalAlign=middle;whiteSpace=wrap;rounded=1;labelBackgroundColor=none;fontColor=#143642;" parent="WaDthbBKja6x3SG7VzEH-92" vertex="1">
          <mxGeometry y="64" width="160" height="18" as="geometry" />
        </mxCell>
        <mxCell id="WaDthbBKja6x3SG7VzEH-96" value="number: Integer" style="text;html=1;align=center;verticalAlign=middle;whiteSpace=wrap;rounded=1;labelBackgroundColor=none;fontColor=#143642;" parent="WaDthbBKja6x3SG7VzEH-92" vertex="1">
          <mxGeometry y="82" width="160" height="19" as="geometry" />
        </mxCell>
        <mxCell id="WaDthbBKja6x3SG7VzEH-97" value="&lt;span lang=&quot;pt&quot; class=&quot;BxUVEf ILfuVd&quot;&gt;&lt;span class=&quot;hgKElc&quot;&gt;distric: String &lt;/span&gt;&lt;/span&gt;" style="text;html=1;align=center;verticalAlign=middle;whiteSpace=wrap;rounded=1;labelBackgroundColor=none;fontColor=#143642;" parent="WaDthbBKja6x3SG7VzEH-92" vertex="1">
          <mxGeometry y="101" width="160" height="20" as="geometry" />
        </mxCell>
        <mxCell id="WaDthbBKja6x3SG7VzEH-98" value="city: String" style="text;html=1;align=center;verticalAlign=middle;whiteSpace=wrap;rounded=1;labelBackgroundColor=none;fontColor=#143642;" parent="WaDthbBKja6x3SG7VzEH-92" vertex="1">
          <mxGeometry y="121" width="160" height="19" as="geometry" />
        </mxCell>
        <mxCell id="WaDthbBKja6x3SG7VzEH-103" value="uf::String" style="text;html=1;align=center;verticalAlign=middle;whiteSpace=wrap;rounded=1;labelBackgroundColor=none;fontColor=#143642;" parent="WaDthbBKja6x3SG7VzEH-92" vertex="1">
          <mxGeometry y="140" width="160" height="19" as="geometry" />
        </mxCell>
        <mxCell id="WaDthbBKja6x3SG7VzEH-102" value="" style="endArrow=none;html=1;rounded=1;exitX=0;exitY=0.5;exitDx=0;exitDy=0;entryX=1;entryY=0;entryDx=0;entryDy=0;labelBackgroundColor=none;fontColor=default;strokeColor=#A8201A;" parent="WIyWlLk6GJQsqaUBKTNV-1" source="WaDthbBKja6x3SG7VzEH-98" target="wbWh36v0nCZpc6Vmj600-6" edge="1">
          <mxGeometry width="50" height="50" relative="1" as="geometry">
            <mxPoint x="191" y="383" as="sourcePoint" />
            <mxPoint x="191" y="248" as="targetPoint" />
            <Array as="points">
              <mxPoint x="190" y="-107" />
              <mxPoint x="190" y="28" />
            </Array>
          </mxGeometry>
        </mxCell>
        <mxCell id="WaDthbBKja6x3SG7VzEH-104" value="1" style="text;html=1;align=center;verticalAlign=middle;whiteSpace=wrap;rounded=1;labelBackgroundColor=none;fontColor=#143642;" parent="WIyWlLk6GJQsqaUBKTNV-1" vertex="1">
          <mxGeometry x="237" y="1" width="35" height="21" as="geometry" />
        </mxCell>
        <mxCell id="WaDthbBKja6x3SG7VzEH-105" value="1" style="text;html=1;align=center;verticalAlign=middle;whiteSpace=wrap;rounded=1;labelBackgroundColor=none;fontColor=#143642;" parent="WIyWlLk6GJQsqaUBKTNV-1" vertex="1">
          <mxGeometry x="139" y="1" width="35" height="21" as="geometry" />
        </mxCell>
        <mxCell id="WaDthbBKja6x3SG7VzEH-107" value="- address" style="text;html=1;align=center;verticalAlign=middle;whiteSpace=wrap;rounded=1;labelBackgroundColor=none;fontColor=#143642;" parent="WIyWlLk6GJQsqaUBKTNV-1" vertex="1">
          <mxGeometry x="144.5" y="27" width="58" height="31" as="geometry" />
        </mxCell>
        <mxCell id="WaDthbBKja6x3SG7VzEH-108" value="- person" style="text;html=1;align=center;verticalAlign=middle;whiteSpace=wrap;rounded=1;labelBackgroundColor=none;fontColor=#143642;" parent="WIyWlLk6GJQsqaUBKTNV-1" vertex="1">
          <mxGeometry x="217" y="27" width="58" height="31" as="geometry" />
        </mxCell>
        <mxCell id="qDixvgR1WsT5OVkYPzhH-1" value="HealthCareLog" style="swimlane;fontStyle=3;align=center;verticalAlign=top;childLayout=stackLayout;horizontal=1;startSize=26;horizontalStack=0;resizeParent=1;resizeLast=0;collapsible=1;marginBottom=0;rounded=1;shadow=0;strokeWidth=1;labelBackgroundColor=none;fillColor=#FAE5C7;strokeColor=#0F8B8D;fontColor=#143642;" vertex="1" parent="WIyWlLk6GJQsqaUBKTNV-1">
          <mxGeometry x="703" y="153.4" width="160" height="95.19" as="geometry">
            <mxRectangle x="230" y="140" width="160" height="26" as="alternateBounds" />
          </mxGeometry>
        </mxCell>
        <mxCell id="qDixvgR1WsT5OVkYPzhH-2" value="&amp;lt;&amp;lt;pk&amp;gt;&amp;gt; id: Long" style="text;html=1;align=center;verticalAlign=middle;whiteSpace=wrap;rounded=1;labelBackgroundColor=none;fontColor=#143642;" vertex="1" parent="qDixvgR1WsT5OVkYPzhH-1">
          <mxGeometry y="26" width="160" height="20" as="geometry" />
        </mxCell>
        <mxCell id="qDixvgR1WsT5OVkYPzhH-3" value="applicationDate: LocalDate" style="text;html=1;align=center;verticalAlign=middle;whiteSpace=wrap;rounded=1;labelBackgroundColor=none;fontColor=#143642;" vertex="1" parent="qDixvgR1WsT5OVkYPzhH-1">
          <mxGeometry y="46" width="160" height="20" as="geometry" />
        </mxCell>
        <mxCell id="qDixvgR1WsT5OVkYPzhH-155" value="details: String" style="text;html=1;align=center;verticalAlign=middle;whiteSpace=wrap;rounded=1;labelBackgroundColor=none;fontColor=#143642;" vertex="1" parent="qDixvgR1WsT5OVkYPzhH-1">
          <mxGeometry y="66" width="160" height="20" as="geometry" />
        </mxCell>
        <mxCell id="qDixvgR1WsT5OVkYPzhH-12" value="" style="endArrow=none;html=1;rounded=1;labelBackgroundColor=none;fontColor=default;strokeColor=#A8201A;entryX=1.002;entryY=0.392;entryDx=0;entryDy=0;entryPerimeter=0;exitX=0;exitY=0.5;exitDx=0;exitDy=0;" edge="1" parent="WIyWlLk6GJQsqaUBKTNV-1" source="qDixvgR1WsT5OVkYPzhH-1" target="wbWh36v0nCZpc6Vmj600-56">
          <mxGeometry width="50" height="50" relative="1" as="geometry">
            <mxPoint x="669" y="207" as="sourcePoint" />
            <mxPoint x="171" y="211" as="targetPoint" />
          </mxGeometry>
        </mxCell>
        <mxCell id="qDixvgR1WsT5OVkYPzhH-59" value="- appointments " style="text;html=1;align=center;verticalAlign=middle;whiteSpace=wrap;rounded=1;labelBackgroundColor=none;fontColor=#143642;" vertex="1" parent="WIyWlLk6GJQsqaUBKTNV-1">
          <mxGeometry x="183" y="339" width="96" height="20" as="geometry" />
        </mxCell>
        <mxCell id="qDixvgR1WsT5OVkYPzhH-153" value="- treatments" style="text;html=1;align=center;verticalAlign=middle;whiteSpace=wrap;rounded=1;labelBackgroundColor=none;fontColor=#143642;" vertex="1" parent="WIyWlLk6GJQsqaUBKTNV-1">
          <mxGeometry x="623" y="204.5" width="80" height="19.25" as="geometry" />
        </mxCell>
        <mxCell id="qDixvgR1WsT5OVkYPzhH-154" value="1" style="text;html=1;align=center;verticalAlign=middle;whiteSpace=wrap;rounded=1;labelBackgroundColor=none;fontColor=#143642;" vertex="1" parent="WIyWlLk6GJQsqaUBKTNV-1">
          <mxGeometry x="567" y="178.5" width="35" height="21" as="geometry" />
        </mxCell>
        <mxCell id="qDixvgR1WsT5OVkYPzhH-156" value="*" style="text;html=1;align=center;verticalAlign=middle;whiteSpace=wrap;rounded=1;labelBackgroundColor=none;fontColor=#143642;" vertex="1" parent="WIyWlLk6GJQsqaUBKTNV-1">
          <mxGeometry x="668" y="178.5" width="35" height="21" as="geometry" />
        </mxCell>
        <mxCell id="qDixvgR1WsT5OVkYPzhH-159" value="- pet" style="text;html=1;align=center;verticalAlign=middle;whiteSpace=wrap;rounded=1;labelBackgroundColor=none;fontColor=#143642;" vertex="1" parent="WIyWlLk6GJQsqaUBKTNV-1">
          <mxGeometry x="571" y="204.5" width="36" height="19.25" as="geometry" />
        </mxCell>
        <mxCell id="qDixvgR1WsT5OVkYPzhH-175" value="TreatmentType" style="swimlane;fontStyle=3;align=center;verticalAlign=top;childLayout=stackLayout;horizontal=1;startSize=26;horizontalStack=0;resizeParent=1;resizeLast=0;collapsible=1;marginBottom=0;rounded=0;shadow=0;strokeWidth=1;swimlaneFillColor=#E6E6E6;labelBackgroundColor=none;fillColor=#FAE5C7;strokeColor=#0F8B8D;fontColor=#143642;" vertex="1" parent="WIyWlLk6GJQsqaUBKTNV-1">
          <mxGeometry x="717" y="4" width="132" height="96" as="geometry">
            <mxRectangle x="230" y="140" width="160" height="26" as="alternateBounds" />
          </mxGeometry>
        </mxCell>
        <mxCell id="qDixvgR1WsT5OVkYPzhH-176" value="VERMIFUGE" style="text;html=1;align=center;verticalAlign=middle;whiteSpace=wrap;rounded=1;labelBackgroundColor=none;fontColor=#143642;" vertex="1" parent="qDixvgR1WsT5OVkYPzhH-175">
          <mxGeometry y="26" width="132" height="19" as="geometry" />
        </mxCell>
        <mxCell id="qDixvgR1WsT5OVkYPzhH-177" value="FEACOLLAR" style="text;html=1;align=center;verticalAlign=middle;whiteSpace=wrap;rounded=1;labelBackgroundColor=none;fontColor=#143642;" vertex="1" parent="qDixvgR1WsT5OVkYPzhH-175">
          <mxGeometry y="45" width="132" height="19" as="geometry" />
        </mxCell>
        <mxCell id="qDixvgR1WsT5OVkYPzhH-178" value="VACCINE" style="text;html=1;align=center;verticalAlign=middle;whiteSpace=wrap;rounded=1;labelBackgroundColor=none;fontColor=#143642;" vertex="1" parent="qDixvgR1WsT5OVkYPzhH-175">
          <mxGeometry y="64" width="132" height="19" as="geometry" />
        </mxCell>
        <mxCell id="qDixvgR1WsT5OVkYPzhH-179" value="" style="endArrow=none;html=1;rounded=1;exitX=0.5;exitY=1;exitDx=0;exitDy=0;labelBackgroundColor=none;fontColor=default;strokeColor=#A8201A;entryX=0.5;entryY=0;entryDx=0;entryDy=0;" edge="1" parent="WIyWlLk6GJQsqaUBKTNV-1" source="qDixvgR1WsT5OVkYPzhH-175" target="qDixvgR1WsT5OVkYPzhH-1">
          <mxGeometry width="50" height="50" relative="1" as="geometry">
            <mxPoint x="541" y="66" as="sourcePoint" />
            <mxPoint x="772" y="149" as="targetPoint" />
          </mxGeometry>
        </mxCell>
      </root>
    </mxGraphModel>
  </diagram>
</mxfile>
